<svg width="1440" height="751" viewBox="0 0 1440 751" fill="none" xmlns="http://www.w3.org/2000/svg">
<path d="M1424.78 749.932C954.663 637.6 484.545 637.6 14.442 749.932" stroke="url(#paint0_linear_2046_2733)" stroke-width="0.5" stroke-miterlimit="10"/>
<path d="M1465.56 450.744C968.395 428.275 471.225 428.275 -25.9313 450.744" stroke="url(#paint1_linear_2046_2733)" stroke-width="0.5" stroke-miterlimit="10"/>
<path d="M1451.97 599.783C963.826 532.391 475.67 532.391 -12.4736 599.783" stroke="url(#paint2_linear_2046_2733)" stroke-width="0.5" stroke-miterlimit="10"/>
<path d="M1424.78 1.06836C954.663 113.399 484.545 113.399 14.442 1.06836" stroke="url(#paint3_linear_2046_2733)" stroke-width="0.5" stroke-miterlimit="10"/>
<path d="M1424.78 1.06836C954.663 113.399 484.545 113.399 14.442 1.06836" stroke="url(#paint4_linear_2046_2733)" stroke-width="0.5" stroke-miterlimit="10"/>
<path d="M1465.56 300.968C968.395 323.438 471.225 323.438 -25.9313 300.968" stroke="url(#paint5_linear_2046_2733)" stroke-width="0.5" stroke-miterlimit="10"/>
<path d="M1451.97 150.47C963.826 217.862 475.67 217.862 -12.4736 150.47" stroke="url(#paint6_linear_2046_2733)" stroke-width="0.5" stroke-miterlimit="10"/>
<path d="M1451.97 150.47C963.826 217.862 475.67 217.862 -12.4736 150.47" stroke="url(#paint7_linear_2046_2733)" stroke-width="0.5" stroke-miterlimit="10"/>
<defs>
<linearGradient id="paint0_linear_2046_2733" x1="14.442" y1="707.807" x2="1424.78" y2="707.807" gradientUnits="userSpaceOnUse">
<stop stop-color="#FFFCF8"/>
<stop offset="0.1875" stop-color="#6101A5"/>
<stop offset="0.78125" stop-color="#6101A5"/>
<stop offset="1" stop-color="#FFFCF8"/>
</linearGradient>
<linearGradient id="paint1_linear_2046_2733" x1="-25.9313" y1="442.319" x2="1465.56" y2="442.318" gradientUnits="userSpaceOnUse">
<stop stop-color="#FFFCF8"/>
<stop offset="0.25" stop-color="#6100A5"/>
<stop offset="0.75" stop-color="#6100A5"/>
<stop offset="1" stop-color="#FFFCF8"/>
</linearGradient>
<linearGradient id="paint2_linear_2046_2733" x1="-12.4736" y1="574.512" x2="1451.97" y2="574.512" gradientUnits="userSpaceOnUse">
<stop stop-color="#FFFCF8"/>
<stop offset="0.494792" stop-color="#51018E"/>
<stop offset="1" stop-color="#FFFCF8"/>
</linearGradient>
<linearGradient id="paint3_linear_2046_2733" x1="14.1449" y1="1.06836" x2="1425.08" y2="1.06823" gradientUnits="userSpaceOnUse">
<stop stop-color="#C9C9C9"/>
<stop offset="0.494792" stop-color="#C9C9C9" stop-opacity="0"/>
<stop offset="1" stop-color="#C9C9C9"/>
</linearGradient>
<linearGradient id="paint4_linear_2046_2733" x1="14.442" y1="43.1927" x2="1424.78" y2="43.1926" gradientUnits="userSpaceOnUse">
<stop stop-color="#FFFCF8"/>
<stop offset="0.201737" stop-color="#3D0172"/>
<stop offset="0.763248" stop-color="#2C015A"/>
<stop offset="1" stop-color="#FFFCF8"/>
</linearGradient>
<linearGradient id="paint5_linear_2046_2733" x1="-25.9313" y1="309.395" x2="1465.56" y2="309.394" gradientUnits="userSpaceOnUse">
<stop stop-color="#FFFCF8"/>
<stop offset="0.313845" stop-color="#51018E"/>
<stop offset="0.688597" stop-color="#50018D"/>
<stop offset="1" stop-color="#FFFCF8"/>
</linearGradient>
<linearGradient id="paint6_linear_2046_2733" x1="-12.7822" y1="150.47" x2="1452.28" y2="150.469" gradientUnits="userSpaceOnUse">
<stop stop-color="#C9C9C9"/>
<stop offset="0.494792" stop-color="#C9C9C9" stop-opacity="0"/>
<stop offset="1" stop-color="#C9C9C9"/>
</linearGradient>
<linearGradient id="paint7_linear_2046_2733" x1="-12.4736" y1="175.741" x2="1451.97" y2="175.741" gradientUnits="userSpaceOnUse">
<stop stop-color="#1F0047"/>
<stop offset="0.5" stop-color="#6100A5"/>
<stop offset="1" stop-color="#1F0047"/>
</linearGradient>
</defs>
</svg>
